<?xml version="1.0" encoding="utf-8"?>
<!-- Svg Vector Icons : http://www.onlinewebfonts.com/icon -->
<!DOCTYPE svg PUBLIC "-//W3C//DTD SVG 1.1//EN" "http://www.w3.org/Graphics/SVG/1.1/DTD/svg11.dtd">
<svg version="1.1" xmlns="http://www.w3.org/2000/svg" xmlns:xlink="http://www.w3.org/1999/xlink" x="0px" y="0px" viewBox="0 0 1000 1000" enable-background="new 0 0 1000 1000" xml:space="preserve">
<metadata> Svg Vector Icons : http://www.onlinewebfonts.com/icon </metadata>
<g><path d="M499.6,9.9c-132,0-258.5,55-346.5,143c-86.9,88-143,214.5-143,346.5C10,681,107.9,836.1,252,923c71.5,42.9,159.5,67.1,247.5,67.1c137.5,0,257.4-55,346.5-144.1C964.9,727.2,1021,544.6,972.6,369.6C915.4,160.6,726.2,9.9,499.6,9.9L499.6,9.9z M435.8,743.7c-49.5,48.4-129.8,48.4-179.3,0c-49.5-49.5-49.5-129.8,0-179.3L383,437.8c49.5-49.5,129.8-49.5,179.3,0l3.3,3.3c1.1,1.1,2.2,1.1,2.2,2.2l5.5,6.6c0,0,0,0,0,1.1c7.7,13.2,5.5,25.3-5.5,36.3c-9.9,9.9-22,12.1-35.2,4.4c-1.1,0-5.5-5.5-13.2-11c-26.4-26.4-66-25.3-93.5-1.1L299.3,607.3c-26.4,25.3-26.4,67.1,0,93.5c26.4,25.3,67.1,25.3,93.5,0l75.9-77c28.6,14.3,57.2,14.3,84.7,1.1L435.8,743.7z M743.8,434.5L617.3,562.2c-49.5,48.4-129.8,48.4-179.3,0l-2.2-2.2l-2.2-2.2c-1.1-1.1-1.1-1.1-1.1-2.2L427,549c-7.7-13.2-5.5-25.3,4.4-35.2c11-11,23.1-13.2,36.3-6.6c1.1,0,2.2,1.1,4.4,3.3l8.8,8.8c26.4,25.3,67.1,25.3,93.5,0l126.5-127.6c26.4-25.3,26.4-67.1,0-92.4c-26.4-26.4-67.1-26.4-93.5,0l-75.9,75.9c-28.6-14.3-57.2-14.3-84.7-1.1l117.7-117.7c49.5-49.5,129.8-49.5,179.3,0c25.3,24.2,37.4,53.9,37.4,89.1C781.2,380.6,769.1,410.3,743.8,434.5z"/></g>
</svg>